<?xml version="1.0" encoding="UTF-8"?><svg id="Vector_Logo" xmlns="http://www.w3.org/2000/svg" viewBox="0 0 3840 2160"><defs><style>.cls-1{fill:#e22146;}.cls-2{stroke:#000;stroke-miterlimit:10;stroke-width:1.75px;}</style></defs><g id="Slogan"><g><path class="cls-2" d="M1034.61,1497.74h9.72c.45,9.04,6.1,17.74,20.91,17.74,12.09,.11,18.99-6.21,18.99-15.93,0-7.35-3.84-10.85-17.4-14.8-15.26-4.41-23.51-9.38-23.51-21.81s10.51-22.38,27.12-22.38c15.59,0,25.77,7.91,26.1,22.26h-9.04c-1.02-10.74-7.91-14.35-17.97-14.35-11.64,0-16.84,6.21-16.84,14.13,0,6.44,3.5,9.49,17.52,13.79,16.05,4.86,23.62,10.06,23.62,22.15,0,14.24-11.19,24.86-29.16,24.86-20.34,0-29.95-12.32-30.06-25.65Z"/><path class="cls-2" d="M1106.7,1497.06c0-19.78,13.67-34.69,31.42-34.69,16.39,0,26.44,10.74,26.44,25.99,0,20.12-13,34.92-31.53,34.92-16.39,0-26.33-11.19-26.33-26.22Zm48.03-8.48c0-11.19-5.88-18.53-17.18-18.53-12.66,0-21.13,11.64-21.13,27.01,0,11.19,5.54,18.53,17.06,18.53,13.33,0,21.25-11.64,21.25-27.01Z"/><path class="cls-2" d="M1235.98,1488.25c0,18.99-10.96,35.14-29.49,35.14-11.98,0-18.19-6.33-20.79-12.09l-5.09,31.64h-9.38l9.83-62.04c1.24-8.02,1.47-12.66,1.58-17.63h8.81c0,3.28-.23,7.8-.68,11.53,4.18-7.57,12.77-12.54,21.47-12.54,13.79,0,23.73,10.17,23.73,25.99Zm-9.94,.57c0-12.09-5.99-18.87-15.59-18.87-12.77,0-22.71,10.4-22.71,27.35,0,11.41,7.01,18.42,18.19,18.42,12.88,0,20.12-11.53,20.12-26.9Z"/><path class="cls-2" d="M1259.93,1435.02h9.38l-6.1,38.76c3.5-5.76,10.28-11.53,19.89-11.53,12.32,0,20,6.89,17.18,24.75l-5.65,35.37h-9.38l5.99-37.52c1.58-9.83-2.03-14.58-10.17-14.58-9.83,0-18.31,6.55-20.12,17.74l-5.42,34.35h-9.38l13.79-87.35Z"/><path class="cls-2" d="M1323.44,1463.27h9.38l-9.38,59.1h-9.38l9.38-59.1Zm1.13-18.42c0-3.39,2.94-6.33,6.33-6.33s6.1,2.71,6.1,6.1-2.83,6.33-6.22,6.33-6.22-2.71-6.22-6.1Z"/><path class="cls-2" d="M1341.51,1504.18h9.15c.45,6.33,3.73,11.41,14.24,11.41,8.25,0,12.09-3.62,12.09-9.72,0-5.08-3.05-7.35-11.98-9.61-13.22-3.28-17.97-7.91-17.97-16.84,0-11.3,9.94-17.18,20.57-17.18,11.53,0,20.23,5.08,20.91,17.06h-8.81c-.34-5.65-4.97-9.27-12.32-9.27s-11.53,3.28-11.53,8.81c0,4.52,2.71,6.78,11.98,9.04,11.75,2.94,18.31,6.67,18.31,17.52s-8.36,17.97-21.58,17.97c-15.71,0-22.83-9.04-23.05-19.21Z"/><path class="cls-2" d="M1402.42,1506.22l5.54-35.03h-8.48l1.24-7.91h8.48l2.15-13.45h9.38l-2.15,13.45h13.45l-1.24,7.91h-13.45l-5.65,35.37c-1.02,6.44,1.24,8.7,6.55,8.7,2.26,0,4.86-.45,7.01-1.24l-1.24,7.8c-2.03,.9-4.52,1.36-7.23,1.36-11.64,0-15.82-7.35-14.35-16.95Z"/><path class="cls-2" d="M1447.62,1463.27h9.38l-9.38,59.1h-9.38l9.38-59.1Zm1.13-18.42c0-3.39,2.94-6.33,6.33-6.33s6.1,2.71,6.1,6.1-2.83,6.33-6.22,6.33-6.22-2.71-6.22-6.1Z"/><path class="cls-2" d="M1467.28,1496.38c0-21.81,14.58-34.02,30.62-34.02,13,0,23.17,6.44,23.96,20.79h-8.93c-1.13-10.17-7.23-13-15.48-13-11.75,0-20.57,9.15-20.57,26.22,0,12.43,6.1,19.21,18.19,19.21,8.25,0,15.48-5.08,17.06-14.24h8.81c-2.49,14.01-13,21.92-26.1,21.92-17.74,0-27.57-11.08-27.57-26.9Z"/><path class="cls-2" d="M1530.56,1506.55c0-14.58,13.22-18.87,28.7-18.87h11.41l.68-4.29c1.47-9.04-1.58-13.33-11.07-13.33-7.68,0-12.54,3.28-14.13,10.62h-9.38c2.71-14.13,14.35-18.42,23.84-18.42,13.22,0,22.49,5.99,20,21.92l-3.28,20.57c-1.24,7.68-1.58,12.66-1.02,17.63h-8.81c-.34-3.16-.34-6.78-.11-9.38-4.18,6.78-10.62,10.28-17.74,10.28-12.09,0-19.1-6.67-19.1-16.73Zm37.97-5.76l1.02-6.44h-10.06c-13.22,0-19.66,3.16-19.66,12.2,0,5.2,3.5,9.38,11.07,9.38,8.81,0,16.05-4.86,17.63-15.14Z"/><path class="cls-2" d="M1596.55,1506.22l5.54-35.03h-8.48l1.24-7.91h8.48l2.15-13.45h9.38l-2.15,13.45h13.45l-1.24,7.91h-13.45l-5.65,35.37c-1.02,6.44,1.24,8.7,6.55,8.7,2.26,0,4.86-.45,7.01-1.24l-1.24,7.8c-2.03,.9-4.52,1.36-7.23,1.36-11.64,0-15.82-7.35-14.35-16.95Z"/><path class="cls-2" d="M1657.01,1515.6c8.25,0,14.01-3.5,16.27-10.28h9.38c-3.62,12.21-14.01,18.08-25.99,18.08-16.05,0-25.54-10.51-25.54-25.31,0-20.91,13.45-35.71,30.85-35.71,16.05,0,26.1,9.95,22.94,30.17l-.34,2.15h-43.73c-.11,1.24-.11,2.49-.11,3.84,0,10.74,4.97,17.06,16.27,17.06Zm-15.03-28.48h34.24c.9-11.87-4.07-17.06-14.8-17.06-8.36,0-16.5,4.97-19.44,17.06Z"/><path class="cls-2" d="M1694.63,1497.29c0-18.87,11.64-35.03,30.62-35.03,11.3,0,17.06,6.1,19.78,11.75l6.1-38.99h9.38l-10.96,69.73c-1.24,8.02-1.47,12.77-1.24,17.63h-8.93c-.23-3.39,0-7.35,.45-10.74-4.18,7.01-11.53,11.75-20.23,11.75-14.69,0-24.97-10.17-24.97-26.1Zm48.25-9.15c0-11.19-7.23-18.08-17.29-18.08-13.33,0-21.02,11.41-21.02,26.78,0,11.75,5.99,18.76,16.16,18.76,12.54,0,22.15-9.15,22.15-27.46Z"/><path class="cls-2" d="M1766.16,1515.71c0-4.07,3.16-7.23,7.12-7.23s7.35,3.16,7.35,7.23-3.28,7.23-7.23,7.23-7.23-3.17-7.23-7.23Z"/><path class="cls-2" d="M1832.27,1488.02c0-26.44,17.63-47.69,42.94-47.69,16.27,0,28.93,9.04,30.06,26.44h-9.27c-1.92-12.2-8.36-18.65-21.25-18.65-20.34,0-32.32,17.63-32.32,39.89,0,17.4,8.59,27.46,25.88,27.46,13,0,21.58-8.02,25.31-19.89h9.38c-4.29,17.06-17.74,27.8-34.81,27.8-22.26,0-35.94-13.9-35.94-35.37Z"/><path class="cls-2" d="M1927.52,1435.02h9.49l-13.79,87.35h-9.49l13.79-87.35Z"/><path class="cls-2" d="M1941.65,1506.55c0-14.58,13.22-18.87,28.7-18.87h11.41l.68-4.29c1.47-9.04-1.58-13.33-11.08-13.33-7.68,0-12.54,3.28-14.12,10.62h-9.38c2.71-14.13,14.35-18.42,23.84-18.42,13.22,0,22.49,5.99,20,21.92l-3.28,20.57c-1.24,7.68-1.58,12.66-1.02,17.63h-8.81c-.34-3.16-.34-6.78-.11-9.38-4.18,6.78-10.62,10.28-17.74,10.28-12.09,0-19.1-6.67-19.1-16.73Zm37.97-5.76l1.02-6.44h-10.06c-13.22,0-19.66,3.16-19.66,12.2,0,5.2,3.5,9.38,11.08,9.38,8.81,0,16.05-4.86,17.63-15.14Z"/><path class="cls-2" d="M2001.76,1504.18h9.15c.45,6.33,3.73,11.41,14.24,11.41,8.25,0,12.09-3.62,12.09-9.72,0-5.08-3.05-7.35-11.98-9.61-13.22-3.28-17.97-7.91-17.97-16.84,0-11.3,9.95-17.18,20.57-17.18,11.53,0,20.23,5.08,20.91,17.06h-8.81c-.34-5.65-4.97-9.27-12.32-9.27s-11.53,3.28-11.53,8.81c0,4.52,2.71,6.78,11.98,9.04,11.75,2.94,18.31,6.67,18.31,17.52s-8.36,17.97-21.58,17.97c-15.71,0-22.83-9.04-23.05-19.21Z"/><path class="cls-2" d="M2055.67,1504.18h9.15c.45,6.33,3.73,11.41,14.24,11.41,8.25,0,12.09-3.62,12.09-9.72,0-5.08-3.05-7.35-11.98-9.61-13.22-3.28-17.97-7.91-17.97-16.84,0-11.3,9.95-17.18,20.57-17.18,11.53,0,20.23,5.08,20.91,17.06h-8.81c-.34-5.65-4.97-9.27-12.32-9.27s-11.53,3.28-11.53,8.81c0,4.52,2.71,6.78,11.98,9.04,11.75,2.94,18.31,6.67,18.31,17.52s-8.36,17.97-21.58,17.97c-15.71,0-22.83-9.04-23.05-19.21Z"/><path class="cls-2" d="M2122.22,1463.27h9.38l-9.38,59.1h-9.38l9.38-59.1Zm1.13-18.42c0-3.39,2.94-6.33,6.33-6.33s6.1,2.71,6.1,6.1-2.83,6.33-6.21,6.33-6.22-2.71-6.22-6.1Z"/><path class="cls-2" d="M2141.88,1496.38c0-21.81,14.58-34.02,30.62-34.02,13,0,23.17,6.44,23.96,20.79h-8.93c-1.13-10.17-7.23-13-15.48-13-11.75,0-20.57,9.15-20.57,26.22,0,12.43,6.1,19.21,18.19,19.21,8.25,0,15.48-5.08,17.06-14.24h8.81c-2.49,14.01-13,21.92-26.1,21.92-17.74,0-27.57-11.08-27.57-26.9Z"/><path class="cls-2" d="M2205.16,1506.55c0-14.58,13.22-18.87,28.7-18.87h11.41l.68-4.29c1.47-9.04-1.58-13.33-11.08-13.33-7.68,0-12.54,3.28-14.13,10.62h-9.38c2.71-14.13,14.35-18.42,23.84-18.42,13.22,0,22.49,5.99,20,21.92l-3.28,20.57c-1.24,7.68-1.58,12.66-1.02,17.63h-8.81c-.34-3.16-.34-6.78-.11-9.38-4.18,6.78-10.62,10.28-17.74,10.28-12.09,0-19.1-6.67-19.1-16.73Zm37.97-5.76l1.02-6.44h-10.06c-13.22,0-19.66,3.16-19.66,12.2,0,5.2,3.5,9.38,11.07,9.38,8.82,0,16.05-4.86,17.63-15.14Z"/><path class="cls-2" d="M2282.34,1435.02h9.49l-13.79,87.35h-9.49l13.79-87.35Z"/><path class="cls-2" d="M2298.27,1515.71c0-4.07,3.16-7.23,7.12-7.23s7.35,3.16,7.35,7.23-3.28,7.23-7.23,7.23-7.23-3.17-7.23-7.23Z"/><path class="cls-2" d="M2374.89,1441.58h46.67l-1.36,8.02h-36.84l-4.29,27.46h30.06l-1.24,8.02h-30.06l-4.63,29.27h39.33l-1.24,8.02h-49.16l12.77-80.8Z"/><path class="cls-2" d="M2445.06,1491.19l-15.03-27.91h10.51l11.07,21.13,17.29-21.13h10.51l-23.62,28.93,16.27,30.17h-10.62l-12.09-23.62-19.44,23.62h-10.51l25.65-31.19Z"/><path class="cls-2" d="M2481.78,1496.38c0-21.81,14.58-34.02,30.62-34.02,13,0,23.17,6.44,23.96,20.79h-8.93c-1.13-10.17-7.23-13-15.48-13-11.75,0-20.57,9.15-20.57,26.22,0,12.43,6.1,19.21,18.19,19.21,8.25,0,15.48-5.08,17.06-14.24h8.81c-2.49,14.01-13,21.92-26.1,21.92-17.74,0-27.57-11.08-27.57-26.9Z"/><path class="cls-2" d="M2555.12,1463.27h9.38l-9.38,59.1h-9.38l9.38-59.1Zm1.13-18.42c0-3.39,2.94-6.33,6.33-6.33s6.1,2.71,6.1,6.1-2.83,6.33-6.22,6.33-6.22-2.71-6.22-6.1Z"/><path class="cls-2" d="M2579.07,1506.22l5.54-35.03h-8.48l1.24-7.91h8.47l2.15-13.45h9.38l-2.15,13.45h13.45l-1.24,7.91h-13.45l-5.65,35.37c-1.02,6.44,1.24,8.7,6.55,8.7,2.26,0,4.86-.45,7.01-1.24l-1.24,7.8c-2.03,.9-4.52,1.36-7.23,1.36-11.64,0-15.82-7.35-14.35-16.95Z"/><path class="cls-2" d="M2624.27,1463.27h9.38l-9.38,59.1h-9.38l9.38-59.1Zm1.13-18.42c0-3.39,2.94-6.33,6.33-6.33s6.1,2.71,6.1,6.1-2.83,6.33-6.22,6.33-6.22-2.71-6.22-6.1Z"/><path class="cls-2" d="M2650.82,1480.9c1.24-8.02,1.47-12.66,1.58-17.63h8.81c0,3.28-.23,7.8-.68,11.75,4.07-7.12,11.07-12.77,20.68-12.77,12.32,0,20,6.89,17.18,24.75l-5.65,35.37h-9.38l5.99-37.52c1.58-9.83-1.92-14.58-10.17-14.58-9.83,0-18.31,6.55-20.12,17.74l-5.42,34.35h-9.38l6.55-41.47Z"/><path class="cls-2" d="M2764.39,1519.44c-2.6,16.27-13,24.41-29.38,24.41-19.1,0-25.2-9.61-26.33-18.08h9.49c1.13,5.99,6.1,10.17,16.61,10.17,12.66,0,18.31-5.99,20.23-17.4l1.36-8.25c-4.41,6.33-10.74,9.94-19.44,9.94-14.46,0-24.64-10.28-24.64-25.2,0-17.74,12.54-32.77,29.83-32.77,11.3,0,17.29,6.1,20,11.75l1.7-10.74h9.38l-8.81,56.16Zm-4.41-32.21c0-10.85-7.46-17.18-17.52-17.18-12.66,0-20.34,11.41-20.34,24.52,0,10.62,5.42,18.08,15.82,18.08,11.75,0,22.04-9.49,22.04-25.43Z"/><path class="cls-2" d="M2783.37,1515.71c0-4.07,3.16-7.23,7.12-7.23s7.35,3.16,7.35,7.23-3.28,7.23-7.23,7.23-7.23-3.17-7.23-7.23Z"/></g></g><g id="Wordmark"><g><path d="M1045.38,1284.61c10.35-25.35,14.28-39.98,14.28-74.61v-110.67c0-34.99-3.93-49.27-14.28-74.61v-.71h104.6c80.68,0,105.31,30.7,105.31,71.76,0,45.34-31.42,82.47-112.45,82.47h-19.28v31.77c0,34.27,3.57,49.27,14.64,74.61v.71h-92.82v-.71Zm78.18-252.04v137.44h10.35c42.48,0,56.05-41.05,56.05-74.25,0-37.84-17.14-63.55-55.69-63.55-2.86,0-6.43,0-10.71,.36Z"/><path d="M1251.37,1198.57c0-49.62,43.55-92.82,96.03-92.82s96.03,43.2,96.03,92.82-43.55,92.1-96.03,92.1-96.03-42.48-96.03-92.1Zm132.8,0c0-50.69-11.42-86.04-36.77-86.04s-36.77,35.34-36.77,86.04,11.42,85.32,36.77,85.32,36.77-34.63,36.77-85.32Z"/><path d="M1578.74,1285.32l-52.12-91.03v34.99c0,27.85,4.64,41.05,11.07,55.33v.71h-77.11v-.71c5-14.28,8.57-26.77,8.57-55.33v-143.87c0-26.77-5-41.77-17.85-56.76v-.71l75.33-20.71v187.07l42.84-38.91c16.42-14.99,13.57-33.56,6.78-43.2v-.71h62.83v.71c-24.63,10-39.63,25.7-56.05,40.34l-11.42,11.07,49.27,83.54c9.64,16.06,15.35,27.49,27.85,37.48v.71h-69.97Z"/><path d="M1732.6,1290.67c-53.91,0-86.75-39.27-86.75-89.25,0-56.05,38.56-95.67,88.18-95.67s77.11,39.63,76.4,76.04l-106.38-.36c1.78,52.48,26.77,68.9,58.19,68.9,24.63,0,39.63-10,46.05-17.14l1.79,1.07c-9.64,33.56-36.77,56.4-77.47,56.4Zm-28.56-116.38l50.69-.71v-13.57c0-33.56-8.92-47.84-22.85-47.84-18.56,0-27.85,29.63-27.85,62.12Z"/><path d="M1833.62,1285.32v-.71c5.71-17.49,8.57-31.77,8.57-62.12v-40.34c0-26.42-5-41.77-17.85-56.76v-.71l73.9-20.71v43.2c14.99-15.35,32.49-43.55,63.19-41.41l-6.43,59.98h-1.78c-8.93-12.14-28.2-21.06-37.13-21.06-5.35,0-11.42,4.28-16.42,10.35v67.47c0,29.63,2.86,44.62,8.57,62.12v.71h-74.61Z"/><path d="M2274.87,1263.9c-9.28,6.43-43.55,26.77-94.96,26.77-83.18,0-146.37-55.33-146.37-132.8s62.83-139.23,149.22-139.23c40.34,0,68.54,7.14,90.68,13.21l7.14,65.69-3.57,1.07c-38.56-52.12-60.33-71.76-96.03-71.76-58.55,0-78.54,53.55-78.54,131.02s27.49,124.59,77.83,124.59c43.2,0,67.11-35.34,98.17-89.96l3.57,1.07-7.14,70.33Z"/><path d="M2310.92,1284.61c5-14.28,8.57-26.77,8.57-55.33v-143.87c0-26.77-5-41.77-17.85-56.76v-.71l75.33-20.71v222.05c0,27.85,3.57,41.05,8.57,55.33v.71h-74.61v-.71Z"/><path d="M2460.51,1290.67c-30.7,0-48.19-22.49-48.19-56.76v-81.04c0-21.42-5.35-30.34-13.57-40.34v-1.07h70.68v122.81c0,14.64,6.78,26.77,22.85,26.77,11.78,0,20.35-7.5,26.06-17.49v-91.03c0-21.42-5-30.7-13.57-40.34v-.71h71.04v99.6c0,39.98,5,49.62,17.85,62.47v.71l-73.54,16.06v-38.91l-1.07-.36c-7.85,14.99-27.13,39.63-58.55,39.63Z"/><path d="M2640.08,1272.83l-21.42,13.57h-3.57v-200.99c0-26.77-5-41.77-17.85-56.76v-.71l75.33-20.71v126.73h1.07c10.35-13.92,28.92-28.2,55.69-28.2,42.12,0,69.61,35.7,69.61,89.25s-31.06,95.67-97.1,95.67c-28.2,0-48.91-8.21-61.76-17.85Zm99.25-66.76c-.36-50.34-14.28-71.4-40.7-71.4-11.07,0-19.99,3.57-26.06,7.85v86.04c0,40.7,17.14,55.69,33.2,55.69,24.28,0,33.56-31.77,33.56-78.18Z"/></g></g><g id="Spade"><path d="M1158.39,885.76h-48.08c6.11-5.78,9.76-12.96,11.3-21.11,1.8-9.49,3.46-19.02,4.69-28.59,1.02-7.95,1.32-16,1.96-24.33-.86,.35-1.06,.37-1.14,.47-1.03,1.51-2,3.06-3.06,4.55-13.02,18.41-30.58,28.41-53.33,26.55-22.43-1.84-38.96-13.55-47.91-34.28-8.65-20.03-6.69-39.81,6.49-57.31,9.91-13.16,20.83-25.64,32.1-37.69,27.63-29.53,51.69-61.55,70.38-97.5,.56-1.07,1.31-2.05,2.01-3.12,6.5,11.09,12.65,21.97,19.16,32.63,17.84,29.26,40.78,54.4,63.92,79.43,7.91,8.55,15.2,17.74,22.18,27.08,8.31,11.1,11.28,23.9,10.53,37.76-1.64,30.63-30.42,55.68-60.94,52.84-20.53-1.91-35.55-12.58-46.83-29.27-.48-.72-1.1-1.34-1.65-2.01l-1.42,.39c2.21,16.5,4.05,33.06,6.77,49.47,1.53,9.23,4.47,18.24,12.86,24.05Z"/></g><g id="Club"><path d="M2163.67,612.26c2.33,0,4.66,0,7,0,4.23,.83,8.54,1.35,12.67,2.53,44.34,12.59,56.06,62.38,34.36,94.94-1.4,2.1-2.82,4.18-4.35,6.45,8.78,.71,16.96,.83,24.95,2.12,41.37,6.67,64.52,53,45.01,89.68-22.26,41.84-79.89,43.18-106.25,2.46-.89-1.37-1.75-2.77-2.62-4.15l-1.39,.53c1.64,14.87,2.79,29.83,5.08,44.6,1.87,12.07,4.25,24.29,14.71,33.51h-49.31c17.93-23.33,14.95-51.42,17.87-78.18-1.33,1.05-2.11,2.28-2.92,3.48-.93,1.38-1.83,2.79-2.84,4.11-15,19.58-34.72,29.08-59.28,25.26-24.93-3.89-41.22-18.83-49.05-42.85-1.02-3.12-1.7-6.35-2.53-9.52v-14c.31-1.09,.72-2.17,.93-3.29,5.02-27.47,26.4-48.09,54.2-51.81,7.3-.98,14.73-1,22.59-1.49-1.86-2.64-3.52-4.88-5.06-7.2-23.61-35.43-6.28-83.4,34.19-94.58,3.96-1.09,8.05-1.74,12.08-2.59Z"/></g><g id="Heart"><path class="cls-1" d="M1651.65,648.02c11.8-16.9,27.13-27.72,46.76-32.33,47.86-11.24,95.53,19.83,105.68,67.85,6.23,29.5-2.32,55.1-17.25,79.62-19.43,31.9-45.37,57.97-74.61,80.68-18.6,14.45-38.4,27.36-57.8,40.78-1.52,1.05-4.69,1.57-6.08,.7-39.99-24.82-77.52-52.71-108.47-88.58-17.29-20.04-31.91-41.77-39.57-67.43-15.79-52.87,18.97-107.93,73.52-115.05,30.46-3.97,56.51,5.61,75.51,30.98,.59,.78,1.25,1.51,2.31,2.78Z"/></g><g id="Diamond"><path class="cls-1" d="M2684.07,888.35c-2.34-2.61-4.32-4.11-5.36-6.09-7.4-14.12-14.83-28.23-21.85-42.54-14.5-29.55-37.16-50.58-66.48-64.94-13.11-6.42-26.08-13.14-38.98-19.97-1.98-1.05-4.52-3.4-4.54-5.17-.02-1.76,2.49-4.17,4.47-5.22,12.46-6.6,24.94-13.18,37.66-19.24,31.71-15.11,55.14-38.31,70.27-70.05,6.06-12.72,12.62-25.2,19.23-37.64,1.1-2.07,3.66-4.71,5.48-4.66,1.88,.05,4.32,2.72,5.43,4.81,6.61,12.45,13.17,24.94,19.26,37.65,15.02,31.36,38.06,54.5,69.46,69.49,12.86,6.14,25.5,12.78,38.08,19.47,2.07,1.1,4.46,3.56,4.67,5.59,.16,1.55-2.6,4.01-4.6,5.07-15.7,8.36-31.55,16.44-47.32,24.68-23.94,12.5-42.29,30.65-54.8,54.62-8.31,15.92-16.52,31.88-24.91,47.76-1.07,2.02-2.91,3.63-5.17,6.38Z"/></g></svg>